<svg width="35" height="43" viewBox="0 0 35 43" fill="none" xmlns="http://www.w3.org/2000/svg">
<path d="M8.62025 39.184C8.41758 39.056 8.18825 38.9547 7.93225 38.88C7.68692 38.8053 7.43092 38.736 7.16425 38.672C6.90825 38.608 6.65758 38.5387 6.41225 38.464C6.16692 38.3787 5.94292 38.2613 5.74025 38.112C5.30292 37.7813 5.04692 37.376 4.97225 36.896C4.90825 36.4053 5.01492 35.9147 5.29225 35.424C5.44158 35.168 5.63892 34.96 5.88425 34.8C6.12958 34.6293 6.39625 34.5013 6.68425 34.416C6.98292 34.32 7.28692 34.2667 7.59625 34.256C7.90558 34.2453 8.19892 34.2613 8.47625 34.304C8.65758 34.336 8.84958 34.384 9.05225 34.448C9.25492 34.5013 9.44158 34.576 9.61225 34.672C9.79358 34.768 9.95358 34.8907 10.0923 35.04C10.2416 35.1787 10.3483 35.3547 10.4123 35.568C10.4549 35.7067 10.4603 35.84 10.4283 35.968C10.4069 36.096 10.3536 36.2027 10.2683 36.288C10.1936 36.3733 10.0923 36.4373 9.96425 36.48C9.84692 36.5227 9.71892 36.5333 9.58025 36.512C9.42025 36.48 9.27092 36.432 9.13225 36.368C8.99358 36.304 8.85492 36.2347 8.71625 36.16C8.57758 36.0853 8.43358 36.0213 8.28425 35.968C8.14558 35.9147 7.99625 35.888 7.83625 35.888C7.59092 35.8773 7.38825 35.92 7.22825 36.016C7.06825 36.112 6.95625 36.2293 6.89225 36.368C6.83892 36.5067 6.84425 36.656 6.90825 36.816C6.98292 36.976 7.13225 37.1147 7.35625 37.232C7.55892 37.3387 7.78292 37.424 8.02825 37.488C8.27358 37.552 8.51358 37.616 8.74825 37.68C8.99358 37.744 9.22825 37.8187 9.45225 37.904C9.68692 37.9893 9.89492 38.1067 10.0763 38.256C10.4283 38.544 10.6416 38.88 10.7163 39.264C10.8016 39.648 10.7803 40.0267 10.6523 40.4C10.5243 40.7733 10.3003 41.104 9.98025 41.392C9.67092 41.68 9.30292 41.872 8.87625 41.968C8.56692 42.032 8.23092 42.064 7.86825 42.064C7.51625 42.064 7.16425 42.0267 6.81225 41.952C6.47092 41.8773 6.14025 41.76 5.82025 41.6C5.51092 41.44 5.24958 41.2373 5.03625 40.992C4.88692 40.8213 4.80692 40.6293 4.79625 40.416C4.79625 40.192 4.83892 40 4.92425 39.84C5.02025 39.6693 5.15358 39.552 5.32425 39.488C5.49492 39.424 5.68692 39.4613 5.90025 39.6C6.07092 39.7173 6.27358 39.8347 6.50825 39.952C6.74292 40.0587 6.97758 40.144 7.21225 40.208C7.44692 40.272 7.67092 40.304 7.88425 40.304C8.10825 40.304 8.30025 40.256 8.46025 40.16C8.69492 40.0107 8.81758 39.84 8.82825 39.648C8.83892 39.4453 8.76958 39.2907 8.62025 39.184ZM13.9339 35.264C14.2539 35.104 14.5899 34.992 14.9419 34.928C15.2939 34.8533 15.6405 34.8373 15.9819 34.88C16.3339 34.912 16.6699 35.0027 16.9899 35.152C17.3099 35.2907 17.6085 35.4933 17.8859 35.76C18.1632 36.0373 18.3765 36.3413 18.5259 36.672C18.6752 37.0027 18.7819 37.3707 18.8459 37.776C18.8885 38.0533 18.9579 38.3093 19.0539 38.544C19.1499 38.7787 19.2512 39.0133 19.3579 39.248C19.4752 39.4827 19.5819 39.7173 19.6779 39.952C19.7845 40.1867 19.8699 40.432 19.9339 40.688C19.9872 40.9333 19.9659 41.1733 19.8699 41.408C19.7845 41.632 19.6032 41.7707 19.3259 41.824C19.1659 41.856 19.0112 41.8453 18.8619 41.792C18.7232 41.728 18.5952 41.6427 18.4779 41.536C18.3605 41.4187 18.2539 41.296 18.1579 41.168C18.0725 41.0293 17.9925 40.9013 17.9179 40.784C17.6725 41.104 17.4059 41.3547 17.1179 41.536C16.8299 41.7067 16.4832 41.8187 16.0779 41.872C15.7365 41.9147 15.4112 41.9253 15.1019 41.904C14.7925 41.8827 14.4619 41.824 14.1099 41.728C13.6512 41.6107 13.2725 41.408 12.9739 41.12C12.6859 40.8213 12.4619 40.48 12.3019 40.096C12.1525 39.7013 12.0725 39.28 12.0619 38.832C12.0512 38.384 12.1045 37.9413 12.2219 37.504C12.3712 36.928 12.5952 36.4587 12.8939 36.096C13.1925 35.7333 13.5392 35.456 13.9339 35.264ZM14.3339 37.136C14.1845 37.2853 14.0672 37.4613 13.9819 37.664C13.8965 37.8667 13.8432 38.08 13.8219 38.304C13.8112 38.528 13.8325 38.752 13.8859 38.976C13.9392 39.2 14.0245 39.3973 14.1419 39.568C14.2485 39.7173 14.4299 39.8453 14.6859 39.952C14.9419 40.048 15.2085 40.1067 15.4859 40.128C15.8059 40.1493 16.0832 40.064 16.3179 39.872C16.5632 39.68 16.7445 39.44 16.8619 39.152C16.9899 38.8533 17.0485 38.5387 17.0379 38.208C17.0272 37.8667 16.9365 37.5573 16.7659 37.28C16.6379 37.0773 16.4672 36.928 16.2539 36.832C16.0512 36.736 15.8325 36.688 15.5979 36.688C15.3632 36.6773 15.1285 36.7147 14.8939 36.8C14.6699 36.8747 14.4832 36.9867 14.3339 37.136ZM23.281 35.936C23.281 36.2347 23.281 36.5707 23.281 36.944C23.2917 37.3173 23.297 37.7067 23.297 38.112C23.297 38.5067 23.297 38.9013 23.297 39.296C23.297 39.68 23.2917 40.0373 23.281 40.368C23.2703 40.528 23.2543 40.704 23.233 40.896C23.2117 41.0773 23.169 41.248 23.105 41.408C23.041 41.568 22.9397 41.7013 22.801 41.808C22.673 41.904 22.497 41.9467 22.273 41.936C21.9423 41.9147 21.7023 41.7707 21.553 41.504C21.4143 41.2373 21.3343 40.864 21.313 40.384C21.313 40.1387 21.3077 39.856 21.297 39.536C21.297 39.216 21.2917 38.8907 21.281 38.56C21.281 38.2293 21.281 37.9093 21.281 37.6C21.281 37.28 21.281 36.992 21.281 36.736C21.281 36.5867 21.2757 36.4053 21.265 36.192C21.265 35.9787 21.2703 35.76 21.281 35.536C21.2917 35.312 21.3183 35.0987 21.361 34.896C21.4037 34.6827 21.473 34.5067 21.569 34.368C21.6437 34.2827 21.7503 34.2187 21.889 34.176C22.0277 34.1227 22.1717 34.096 22.321 34.096C22.481 34.096 22.6303 34.1227 22.769 34.176C22.9183 34.2293 23.025 34.304 23.089 34.4C23.1317 34.464 23.1637 34.5547 23.185 34.672C23.2063 34.7893 23.2223 34.9227 23.233 35.072C23.2543 35.2107 23.265 35.36 23.265 35.52C23.2757 35.6693 23.281 35.808 23.281 35.936ZM22.673 32.704C22.3423 32.7893 22.065 32.7573 21.841 32.608C21.6277 32.448 21.4943 32.2133 21.441 31.904C21.3983 31.68 21.4143 31.4827 21.489 31.312C21.5637 31.1413 21.6757 31.0133 21.825 30.928C21.9743 30.832 22.145 30.7893 22.337 30.8C22.529 30.8107 22.721 30.8853 22.913 31.024C23.0943 31.152 23.2223 31.3013 23.297 31.472C23.3823 31.6427 23.409 31.808 23.377 31.968C23.3557 32.128 23.2863 32.2773 23.169 32.416C23.0517 32.544 22.8863 32.64 22.673 32.704ZM24.7029 36.336C24.7029 36.208 24.7029 36.064 24.7029 35.904C24.7029 35.7333 24.7082 35.5627 24.7189 35.392C24.7295 35.2107 24.7455 35.04 24.7669 34.88C24.7989 34.7093 24.8415 34.56 24.8949 34.432C24.9802 34.24 25.1135 34.112 25.2949 34.048C25.4762 33.9733 25.6735 33.9413 25.8869 33.952C26.1109 33.952 26.2869 33.9893 26.4149 34.064C26.5429 34.1387 26.6389 34.24 26.7029 34.368C26.7669 34.4853 26.8042 34.624 26.8149 34.784C26.8362 34.9333 26.8469 35.0933 26.8469 35.264C26.9429 35.0933 27.0709 34.9547 27.2309 34.848C27.4015 34.7413 27.5722 34.656 27.7429 34.592C27.9135 34.528 28.0682 34.4853 28.2069 34.464C28.3455 34.432 28.4255 34.416 28.4469 34.416C28.7135 34.3947 28.9535 34.3893 29.1669 34.4C29.3909 34.4107 29.6362 34.4587 29.9029 34.544C30.0735 34.608 30.2495 34.6987 30.4309 34.816C30.6122 34.9227 30.7722 35.0507 30.9109 35.2C31.0495 35.3493 31.1402 35.5147 31.1829 35.696C31.2362 35.8667 31.2149 36.048 31.1189 36.24C30.9695 36.5067 30.8042 36.64 30.6229 36.64C30.4415 36.6293 30.2442 36.5973 30.0309 36.544C29.9135 36.5227 29.7749 36.4747 29.6149 36.4C29.4549 36.3253 29.3162 36.2773 29.1989 36.256C28.8362 36.2027 28.5162 36.2293 28.2389 36.336C27.9615 36.4427 27.7215 36.5707 27.5189 36.72C27.2842 36.9013 27.0815 37.1093 26.9109 37.344V39.648C26.9109 39.936 26.9055 40.2347 26.8949 40.544C26.8949 40.8533 26.8522 41.136 26.7669 41.392C26.6922 41.6373 26.5589 41.84 26.3669 42C26.1855 42.1493 25.9189 42.2133 25.5669 42.192C25.3749 42.1813 25.2042 42.0907 25.0549 41.92C24.9055 41.7387 24.8149 41.5627 24.7829 41.392C24.7615 41.232 24.7455 41.04 24.7349 40.816C24.7242 40.592 24.7135 40.3573 24.7029 40.112C24.7029 39.8667 24.7029 39.6213 24.7029 39.376C24.7029 39.12 24.7029 38.8853 24.7029 38.672V36.336Z" fill="#D9D9D9"/>
<g clip-path="url(#clip0_70_1416)">
<path d="M13 6C13.2652 6 13.5196 5.89464 13.7071 5.70711C13.8946 5.51957 14 5.26522 14 5C14 4.73478 13.8946 4.48043 13.7071 4.29289C13.5196 4.10536 13.2652 4 13 4H11C10.7348 4 10.4804 4.10536 10.2929 4.29289C10.1054 4.48043 10 4.73478 10 5V19C10 19.2652 10.1054 19.5196 10.2929 19.7071C10.4804 19.8946 10.7348 20 11 20H13C13.2652 20 13.5196 19.8946 13.7071 19.7071C13.8946 19.5196 14 19.2652 14 19C14 18.7348 13.8946 18.4804 13.7071 18.2929C13.5196 18.1054 13.2652 18 13 18H12V6H13Z" fill="#D9D9D9"/>
<path d="M26.82 11.4204L24 7.42044C23.8471 7.20485 23.615 7.05858 23.3545 7.01361C23.0941 6.96864 22.8264 7.02862 22.61 7.18044C22.5018 7.25623 22.4098 7.35268 22.3391 7.46424C22.2684 7.57581 22.2206 7.70026 22.1982 7.83042C22.1759 7.96059 22.1796 8.09388 22.2091 8.22261C22.2386 8.35134 22.2933 8.47296 22.37 8.58044L24.09 11.0004H16C15.7348 11.0004 15.4804 11.1058 15.2929 11.2933C15.1054 11.4809 15 11.7352 15 12.0004C15 12.2657 15.1054 12.52 15.2929 12.7075C15.4804 12.8951 15.7348 13.0004 16 13.0004H24L22.2 15.4004C22.1212 15.5055 22.0639 15.625 22.0313 15.7523C21.9987 15.8795 21.9915 16.0119 22.01 16.1419C22.0286 16.2719 22.0726 16.3969 22.1395 16.5099C22.2064 16.6229 22.2949 16.7216 22.4 16.8004C22.5731 16.9303 22.7836 17.0004 23 17.0004C23.1552 17.0004 23.3084 16.9643 23.4472 16.8949C23.5861 16.8254 23.7069 16.7246 23.8 16.6004L26.8 12.6004C26.9281 12.4313 26.999 12.2258 27.0026 12.0137C27.0062 11.8016 26.9423 11.5938 26.82 11.4204V11.4204Z" fill="#D9D9D9"/>
</g>
<defs>
<clipPath id="clip0_70_1416">
<rect width="24" height="24" fill="white" transform="translate(6)"/>
</clipPath>
</defs>
</svg>
