<svg width="73" height="91" viewBox="0 0 73 91" fill="none" xmlns="http://www.w3.org/2000/svg">
<path d="M10.604 22.152L8.876 26.544C8.636 27.216 8.42 27.912 8.228 28.632C8.036 29.352 7.832 29.976 7.616 30.504C7.4 31.056 7.064 31.488 6.608 31.8C6.176 32.112 5.684 32.34 5.132 32.484C4.58 32.652 4.004 32.724 3.404 32.7C2.828 32.676 2.312 32.568 1.856 32.376C0.824 31.896 0.464 31.104 0.776 30C1.88 25.152 2.912 21.264 3.872 18.336C4.856 15.408 5.66 13.104 6.284 11.424C6.932 9.744 7.604 7.968 8.3 6.096C8.372 5.4 8.66 4.776 9.164 4.224C9.668 3.672 10.256 3.216 10.928 2.856C11.624 2.496 12.344 2.244 13.088 2.1C13.832 1.932 14.492 1.908 15.068 2.028C15.644 2.148 16.064 2.412 16.328 2.82C16.616 3.228 16.64 3.816 16.4 4.584C15.536 6.792 14.924 8.352 14.564 9.264C14.204 10.176 13.88 10.992 13.592 11.712L12.584 14.088C13.088 14.112 13.724 14.04 14.492 13.872C15.884 13.56 16.892 13.452 17.516 13.548C17.516 13.428 17.576 13.224 17.696 12.936C18.368 10.008 19.124 7.32 19.964 4.872C20.564 2.856 22.112 1.8 24.608 1.704C25.592 1.704 26.336 1.944 26.84 2.424C27.392 2.928 27.464 3.612 27.056 4.476C24.848 10.668 23.288 15.552 22.376 19.128C21.344 23.256 20.66 26.04 20.324 27.48C20.012 28.92 19.736 29.772 19.496 30.036C19.256 30.3 19.004 30.48 18.74 30.576C18.5 30.696 18.26 30.804 18.02 30.9C17.78 30.996 17.588 31.236 17.444 31.62H17.336C17.144 32.052 16.724 32.388 16.076 32.628C15.428 32.868 14.768 32.952 14.096 32.88C13.448 32.832 12.896 32.592 12.44 32.16C12.008 31.752 11.9 31.116 12.116 30.252C12.356 28.884 12.752 27.42 13.304 25.86C13.856 24.276 14.288 23.04 14.6 22.152C14.936 21.264 15.212 20.436 15.428 19.668C15.236 19.764 15.044 19.836 14.852 19.884C14.684 19.932 14.468 20.028 14.204 20.172C13.94 20.292 13.664 20.4 13.376 20.496C13.112 20.592 12.848 20.688 12.584 20.784C11.912 21.048 11.36 21.312 10.928 21.576L10.604 22.152ZM14.672 19.74C14.696 19.74 14.816 19.704 15.032 19.632C14.888 19.68 14.768 19.716 14.672 19.74ZM35.7281 24.672C35.2721 24.888 34.8281 25.056 34.3961 25.176C33.9641 25.296 33.4601 25.416 32.8841 25.536C31.3721 25.848 30.2801 26.028 29.6081 26.076C29.6801 26.316 30.0401 26.604 30.6881 26.94C31.1201 27.012 31.5881 26.952 32.0921 26.76C32.6201 26.544 33.1601 26.352 33.7121 26.184C34.2881 25.992 34.8401 25.884 35.3681 25.86C35.9201 25.836 36.4361 26.04 36.9161 26.472C37.1081 26.904 37.2641 27.156 37.3841 27.228C37.5041 27.3 37.6121 27.336 37.7081 27.336C37.8041 27.336 37.9121 27.372 38.0321 27.444C38.1521 27.516 38.3201 27.792 38.5361 28.272C38.7761 28.752 38.7161 29.208 38.3561 29.64C38.0201 30.072 37.4921 30.444 36.7721 30.756C36.0521 31.068 35.2121 31.32 34.2521 31.512C33.2921 31.704 32.3321 31.836 31.3721 31.908C29.2121 32.076 27.5681 31.908 26.4401 31.404C24.8081 30.852 23.7521 29.76 23.2721 28.128C22.6481 25.968 22.9961 23.448 24.3161 20.568C24.9161 19.224 25.8641 17.784 27.1601 16.248C28.2881 14.904 29.5481 13.932 30.9401 13.332C32.5481 12.636 34.2281 12.312 35.9801 12.36C37.8521 12.408 39.1481 13.224 39.8681 14.808C40.2281 15.648 40.3001 16.824 40.0841 18.336C39.7001 20.304 39.1961 21.696 38.5721 22.512C37.9481 23.304 37.0001 24.024 35.7281 24.672ZM33.6401 18.984C32.3681 18.72 31.3721 19.44 30.6521 21.144C30.4361 21.6 30.2681 22.08 30.1481 22.584C30.9641 22.68 31.8281 22.224 32.7401 21.216C33.0761 20.808 33.3281 20.4 33.4961 19.992C33.6641 19.56 33.7121 19.224 33.6401 18.984ZM47.5873 28.596C47.4433 29.1 47.2753 29.544 47.0833 29.928C46.8913 30.312 46.6033 30.672 46.2193 31.008C45.8353 31.344 45.3793 31.656 44.8513 31.944C44.3233 32.256 43.8193 32.472 43.3393 32.592C42.2353 32.832 41.6593 32.508 41.6113 31.62C41.5393 31.38 41.3833 31.236 41.1433 31.188C40.9273 31.164 40.7233 31.104 40.5312 31.008C40.0272 30.792 39.8832 30.204 40.0992 29.244C40.4833 27.924 40.9033 26.328 41.3593 24.456C41.8153 22.56 42.4033 20.484 43.1233 18.228C44.8273 12.756 46.9393 7.824 49.4593 3.432C49.6273 3.216 49.8193 2.94 50.0352 2.604C50.2513 2.244 50.5273 1.92 50.8633 1.632C51.7033 0.863998 52.7353 0.683998 53.9593 1.092C53.9353 1.404 54.0073 1.692 54.1753 1.956C54.3433 2.196 54.5353 2.448 54.7513 2.712C55.3033 3.336 55.5553 3.9 55.5073 4.404C52.9633 10.428 50.6713 17.16 48.6313 24.6C48.3913 25.464 48.1993 26.22 48.0553 26.868C47.9113 27.516 47.7553 28.092 47.5873 28.596ZM59.7893 15.276C60.9893 13.476 62.6573 12.396 64.7933 12.036C65.4893 11.916 66.3413 11.832 67.3493 11.784C68.3813 11.736 69.2573 11.964 69.9773 12.468C70.7213 12.972 71.2733 13.62 71.6333 14.412C72.2573 15.828 72.3533 17.568 71.9213 19.632C71.6813 20.76 71.3933 22.008 71.0573 23.376C70.7213 24.72 70.2173 26.052 69.5453 27.372C68.8733 28.692 67.9973 29.928 66.9173 31.08C65.8373 32.232 64.4333 33.144 62.7053 33.816C61.6733 34.224 60.7613 34.368 59.9693 34.248C59.2013 34.152 58.6253 33.996 58.2413 33.78C57.8573 33.564 57.5933 33.252 57.4493 32.844C56.9693 34.212 56.5133 35.592 56.0813 36.984C55.6733 38.4 55.1213 39.744 54.4253 41.016C53.9453 41.328 53.3573 41.556 52.6613 41.7C51.9653 41.868 51.2813 41.832 50.6093 41.592C49.9373 41.376 49.4573 40.968 49.1693 40.368C48.8573 39.792 48.7013 39.156 48.7013 38.46C48.7013 37.524 48.9293 36.384 49.3853 35.04C50.0573 33.048 50.6093 31.512 51.0413 30.432C51.4493 29.352 51.7133 28.656 51.8333 28.344C51.9533 28.008 52.0733 27.66 52.1933 27.3C52.7213 25.908 53.1053 24.78 53.3453 23.916C53.6093 23.028 53.8493 22.26 54.0653 21.612V21.576C54.3053 20.52 54.6773 19.404 55.1813 18.228C55.7093 17.028 56.0693 16.296 56.2613 16.032C56.6693 15.624 57.0893 15.372 57.5213 15.276C57.9533 15.18 58.4453 15.12 58.9973 15.096H59.1053L59.7893 15.276ZM62.5253 21.288C62.2373 21.792 61.7573 22.26 61.0853 22.692L60.7613 23.448C60.5213 24.072 60.2933 24.708 60.0773 25.356C59.8613 26.004 59.6213 26.64 59.3573 27.264C59.5973 27.504 59.7773 27.732 59.8973 27.948C61.2413 26.772 62.4653 25.224 63.5693 23.304C64.0013 22.512 64.2773 21.72 64.3973 20.928C64.5413 20.136 64.5773 19.632 64.5053 19.416C64.4333 19.2 64.3133 19.092 64.1453 19.092C64.0013 19.092 63.8453 19.14 63.6773 19.236C63.5333 19.308 63.4133 19.392 63.3173 19.488C63.2453 19.56 63.2573 19.56 63.3533 19.488C63.0893 19.8 62.8973 20.076 62.7773 20.316C62.6573 20.532 62.5733 20.856 62.5253 21.288ZM14.348 59.936V60.008C14.348 60.032 14.348 60.044 14.348 60.044C14.372 60.044 14.384 60.056 14.384 60.08V60.152H14.42L14.636 60.728C14.876 61.424 14.252 63.584 12.764 67.208C11.18 71.072 10.448 74.084 10.568 76.244C10.832 77.78 12.116 76.544 14.42 72.536C16.244 69.416 18.008 65.996 19.712 62.276C19.928 61.772 20.156 61.256 20.396 60.728C20.636 60.176 20.936 59.72 21.296 59.36C22.088 58.496 23.048 58.268 24.176 58.676C24.56 58.22 25.004 57.908 25.508 57.74C26.036 57.572 26.528 57.536 26.984 57.632C27.464 57.728 27.872 57.956 28.208 58.316C28.544 58.652 28.724 59.108 28.748 59.684C28.82 60.164 28.568 61.304 27.992 63.104C27.44 64.904 26.924 66.548 26.444 68.036C25.964 69.524 25.472 71.144 24.968 72.896C23.744 77.048 22.772 80.96 22.052 84.632C22.028 85.4 21.692 86.036 21.044 86.54C20.42 87.044 19.712 87.368 18.92 87.512C18.152 87.68 17.42 87.656 16.724 87.44C15.884 87.2 15.44 86.6 15.392 85.64C15.392 85.376 15.38 85.112 15.356 84.848C15.404 85.664 14.816 86.36 13.592 86.936C13.256 87.104 12.944 87.26 12.656 87.404C10.976 87.908 9.212 87.8 7.364 87.08C6.5 86.72 5.72 86.24 5.024 85.64C4.352 85.016 3.884 84.284 3.62 83.444C2.78 80.756 2.936 77.228 4.088 72.86C4.568 70.988 5.156 69.164 5.852 67.388C6.548 65.612 7.052 64.328 7.364 63.536C7.7 62.744 7.94 62.204 8.084 61.916C8.228 61.604 8.384 61.304 8.552 61.016C8.96 60.2 9.308 59.648 9.596 59.36L10.028 58.964C10.076 58.916 10.124 58.892 10.172 58.892C10.22 58.868 10.28 58.832 10.352 58.784C10.544 58.664 10.748 58.58 10.964 58.532L11.468 58.424H11.684C12.38 58.328 12.98 58.472 13.484 58.856C13.484 58.88 13.508 58.892 13.556 58.892L13.844 59.144L13.952 59.252L14.06 59.396C14.06 59.42 14.06 59.432 14.06 59.432C14.084 59.432 14.096 59.444 14.096 59.468L14.132 59.504V59.576C14.156 59.576 14.168 59.588 14.168 59.612V59.648C14.192 59.672 14.216 59.684 14.24 59.684V59.72C14.24 59.744 14.24 59.756 14.24 59.756C14.264 59.756 14.276 59.768 14.276 59.792C14.276 59.792 14.288 59.804 14.312 59.828V59.864C14.312 59.888 14.324 59.912 14.348 59.936ZM15.32 83.912V83.804C15.296 83.828 15.284 83.924 15.284 84.092C15.284 84.02 15.296 83.972 15.32 83.948V83.912ZM39.6765 86.864C38.7405 87.632 37.6245 88.208 36.3285 88.592C35.0565 89 33.7725 89.216 32.4765 89.24C31.1805 89.264 29.9685 89.108 28.8405 88.772C27.7125 88.436 26.8245 87.908 26.1765 87.188C25.4085 86.372 25.1445 85.556 25.3845 84.74C25.5045 84.404 25.7205 84.14 26.0325 83.948C26.3205 83.756 26.6805 83.708 27.1125 83.804C27.4005 83.828 27.6045 83.756 27.7245 83.588C27.8685 83.396 27.9885 83.192 28.0845 82.976C28.1805 82.736 28.2885 82.52 28.4085 82.328C28.5285 82.112 28.7205 82.004 28.9845 82.004C33.2085 82.124 35.4045 81.752 35.5725 80.888C35.2845 80.624 34.9245 80.396 34.4925 80.204C34.0845 80.012 33.6645 79.82 33.2325 79.628C32.1765 79.148 31.4685 78.62 31.1085 78.044C30.6525 77.804 30.3045 77.228 30.0645 76.316C29.9445 75.908 29.8845 75.488 29.8845 75.056C29.8845 74.624 29.9565 74.228 30.1005 73.868C30.0285 72.932 30.6045 71.9 31.8285 70.772C32.1645 70.46 32.5845 70.124 33.0885 69.764C33.5925 69.404 34.3485 69.056 35.3565 68.72C36.3645 68.384 37.3605 68.144 38.3445 68C39.3525 67.832 40.2525 67.772 41.0445 67.82C41.8605 67.868 42.4365 68.06 42.7725 68.396C43.1325 68.732 43.4085 69.152 43.6005 69.656C43.8165 70.16 43.8885 70.652 43.8165 71.132C43.6245 72.212 42.7365 72.956 41.1525 73.364C39.1605 73.652 38.2005 73.916 38.2725 74.156C38.2725 74.204 38.1885 74.264 38.0205 74.336C39.8685 75.608 41.1525 76.856 41.8725 78.08C42.8565 79.76 43.0005 81.632 42.3045 83.696C42.4245 84.368 41.8245 85.208 40.5045 86.216C40.1925 86.456 39.9165 86.672 39.6765 86.864ZM61.8115 60.044C61.9075 60.332 62.0155 60.536 62.1355 60.656C62.2555 60.752 62.3395 60.824 62.3875 60.872C62.5075 60.992 62.4475 61.208 62.2075 61.52C61.9915 61.952 61.6915 62.456 61.3075 63.032C60.6115 64.064 60.1675 64.82 59.9755 65.3C58.9915 67.268 58.2235 69.08 57.6715 70.736C57.1195 72.368 56.6515 73.844 56.2675 75.164C55.8835 76.484 55.5115 77.648 55.1515 78.656C54.7195 79.832 54.2155 80.708 53.6395 81.284C53.3515 81.764 52.8355 82.088 52.0915 82.256C51.3475 82.424 50.5915 82.46 49.8235 82.364C49.0555 82.244 48.3955 81.992 47.8435 81.608C47.3155 81.224 47.1235 80.72 47.2675 80.096C47.5315 77.84 47.9275 75.944 48.4555 74.408C49.0075 72.872 49.4755 71.6 49.8595 70.592C50.2675 69.584 50.6155 68.684 50.9035 67.892C51.1915 67.076 51.4555 66.38 51.6955 65.804C51.9595 65.204 52.2595 64.58 52.5955 63.932C52.9315 63.26 53.2915 62.588 53.6755 61.916C54.0835 61.22 54.4915 60.584 54.8995 60.008C55.8355 58.688 56.6275 57.908 57.2755 57.668C57.9235 57.404 58.5715 57.248 59.2195 57.2C59.8915 57.152 60.4675 57.224 60.9475 57.416C61.4515 57.608 61.7995 57.92 61.9915 58.352C62.1835 58.784 62.1235 59.348 61.8115 60.044ZM53.2075 87.188C52.9435 88.172 52.3915 88.904 51.5515 89.384C50.7355 89.888 49.8595 90.152 48.9235 90.176C47.9875 90.224 47.1115 90.044 46.2955 89.636C45.5035 89.252 45.0115 88.64 44.8195 87.8C44.6035 86.984 44.7235 86.288 45.1795 85.712C45.6595 85.112 46.2235 84.728 46.8715 84.56C47.5195 84.368 48.2755 84.236 49.1395 84.164C50.0275 84.092 50.8315 84.14 51.5515 84.308C52.2715 84.476 52.8235 84.788 53.2075 85.244C53.5915 85.7 53.5915 86.348 53.2075 87.188Z" fill="white"/>
</svg>
