<svg width="35" height="45" viewBox="0 0 35 45" fill="none" xmlns="http://www.w3.org/2000/svg">
<path d="M10 19.5C10 18.837 10.2634 18.2011 10.7322 17.7322C11.2011 17.2634 11.837 17 12.5 17H26" stroke="#E79B29" stroke-width="2" stroke-linecap="round" stroke-linejoin="round"/>
<path d="M12.5 2H26V22H12.5C11.837 22 11.2011 21.7366 10.7322 21.2678C10.2634 20.7989 10 20.163 10 19.5V4.5C10 3.83696 10.2634 3.20107 10.7322 2.73223C11.2011 2.26339 11.837 2 12.5 2V2Z" stroke="#E79B29" stroke-width="2" stroke-linecap="round" stroke-linejoin="round"/>
<path d="M7.94294 37.232C8.12427 37.2853 8.2416 37.3867 8.29494 37.536C8.34827 37.6747 8.36427 37.824 8.34294 37.984C8.27894 38.3147 8.0976 38.5173 7.79894 38.592C7.62827 38.6347 7.45227 38.656 7.27094 38.656C7.10027 38.656 6.92427 38.6613 6.74294 38.672V42.368C6.74294 42.624 6.72694 42.8853 6.69494 43.152C6.69494 43.248 6.66827 43.3493 6.61494 43.456C6.5936 43.5093 6.5776 43.5413 6.56694 43.552C6.56694 43.5733 6.55627 43.6053 6.53494 43.648C6.47094 43.7653 6.3856 43.8613 6.27894 43.936C6.04427 44.064 5.7936 44.096 5.52694 44.032C5.36694 44 5.24427 43.9467 5.15894 43.872C5.06294 43.7973 4.9936 43.7067 4.95094 43.6C4.9296 43.5467 4.9136 43.4933 4.90294 43.44C4.89227 43.3867 4.87627 43.3333 4.85494 43.28C4.84427 43.2267 4.8336 43.1787 4.82294 43.136C4.82294 43.0827 4.82294 43.04 4.82294 43.008V42.08C4.82294 41.5253 4.82294 40.9493 4.82294 40.352C4.8336 39.7547 4.83894 39.1787 4.83894 38.624C4.5936 38.6133 4.3376 38.608 4.07094 38.608C3.81494 38.5973 3.62827 38.5333 3.51094 38.416C3.44694 38.352 3.40427 38.272 3.38294 38.176C3.3616 38.0693 3.35094 37.9627 3.35094 37.856C3.3616 37.7493 3.38294 37.6533 3.41494 37.568C3.44694 37.472 3.4896 37.4027 3.54294 37.36C3.6816 37.232 3.80427 37.1627 3.91094 37.152C4.02827 37.1307 4.17227 37.1147 4.34294 37.104C4.36427 37.104 4.4336 37.104 4.55094 37.104C4.67894 37.0933 4.75894 37.088 4.79094 37.088C4.8016 36.7253 4.81227 36.3627 4.82294 36C4.8336 35.6373 4.8656 35.3067 4.91894 35.008C4.98294 34.6987 5.0736 34.432 5.19094 34.208C5.31894 33.9733 5.51094 33.7973 5.76694 33.68C6.07627 33.5413 6.42827 33.456 6.82294 33.424C7.2176 33.392 7.57494 33.44 7.89494 33.568C8.04427 33.6213 8.18827 33.728 8.32694 33.888C8.47627 34.048 8.5456 34.224 8.53494 34.416C8.52427 34.608 8.48694 34.784 8.42294 34.944C8.35894 35.104 8.22027 35.2107 8.00694 35.264C7.91094 35.2853 7.8096 35.296 7.70294 35.296C7.60694 35.2853 7.5056 35.28 7.39894 35.28C7.29227 35.28 7.19094 35.296 7.09494 35.328C7.0096 35.3493 6.93494 35.3973 6.87094 35.472C6.8176 35.536 6.78027 35.6213 6.75894 35.728C6.74827 35.8347 6.7376 35.9467 6.72694 36.064C6.71627 36.1813 6.71094 36.2987 6.71094 36.416C6.7216 36.5227 6.72694 36.6133 6.72694 36.688V37.088C6.97227 37.1093 7.19627 37.1253 7.39894 37.136C7.61227 37.1467 7.7936 37.1787 7.94294 37.232ZM14.6838 41.808C14.8118 41.776 14.9398 41.7547 15.0678 41.744C15.2065 41.7333 15.3291 41.7493 15.4358 41.792C15.5531 41.8347 15.6491 41.9093 15.7238 42.016C15.7985 42.112 15.8358 42.2507 15.8358 42.432C15.8358 42.56 15.8038 42.6827 15.7398 42.8C15.6758 42.9173 15.5958 43.024 15.4998 43.12C15.4038 43.216 15.2971 43.3013 15.1798 43.376C15.0625 43.44 14.9505 43.4933 14.8438 43.536C14.5345 43.6747 14.1771 43.7813 13.7718 43.856C13.3771 43.9307 12.9665 43.9573 12.5398 43.936C11.9638 43.9147 11.4091 43.8027 10.8758 43.6C10.3531 43.3867 9.94248 43.04 9.64381 42.56C9.36648 42.0907 9.20115 41.568 9.14781 40.992C9.09448 40.416 9.12115 39.872 9.22781 39.36C9.34515 38.7413 9.54248 38.24 9.81981 37.856C10.1078 37.4613 10.4491 37.1467 10.8438 36.912C11.3238 36.6347 11.8625 36.4907 12.4598 36.48C13.0571 36.4693 13.6278 36.5867 14.1718 36.832C14.5345 36.992 14.8598 37.2107 15.1478 37.488C15.4358 37.7547 15.6545 38.08 15.8038 38.464C15.8465 38.56 15.8785 38.6773 15.8998 38.816C15.9318 38.9547 15.9531 39.104 15.9638 39.264C15.9745 39.4133 15.9745 39.5627 15.9638 39.712C15.9531 39.8613 15.9265 39.9947 15.8838 40.112C15.8198 40.304 15.7398 40.4533 15.6438 40.56C15.5478 40.6667 15.4251 40.7467 15.2758 40.8C15.1265 40.8533 14.9451 40.8907 14.7318 40.912C14.5291 40.9227 14.2838 40.9333 13.9958 40.944C13.7398 40.9547 13.4998 40.96 13.2758 40.96C13.0518 40.96 12.8225 40.96 12.5878 40.96C12.3531 40.9493 12.1078 40.944 11.8518 40.944C11.6065 40.9333 11.3291 40.9227 11.0198 40.912C10.9878 41.1253 11.0145 41.312 11.0998 41.472C11.1958 41.6213 11.3238 41.7493 11.4838 41.856C11.6438 41.952 11.8251 42.0267 12.0278 42.08C12.2305 42.1333 12.4278 42.1653 12.6198 42.176C12.9825 42.1973 13.3291 42.1707 13.6598 42.096C13.9905 42.0107 14.3318 41.9147 14.6838 41.808ZM13.9958 38.704C13.7931 38.4693 13.5798 38.2987 13.3558 38.192C13.1851 38.1173 13.0038 38.0853 12.8118 38.096C12.6305 38.096 12.4545 38.1227 12.2838 38.176C11.9745 38.2507 11.7131 38.4107 11.4998 38.656C11.4785 38.6773 11.4411 38.7307 11.3878 38.816C11.3345 38.8907 11.2811 38.9707 11.2278 39.056C11.1851 39.1413 11.1531 39.2213 11.1318 39.296C11.1105 39.3707 11.1211 39.408 11.1638 39.408H14.2998C14.2891 39.2587 14.2625 39.136 14.2198 39.04C14.1771 38.9333 14.1025 38.8213 13.9958 38.704ZM22.7932 41.808C22.9212 41.776 23.0492 41.7547 23.1772 41.744C23.3159 41.7333 23.4385 41.7493 23.5452 41.792C23.6625 41.8347 23.7585 41.9093 23.8332 42.016C23.9079 42.112 23.9452 42.2507 23.9452 42.432C23.9452 42.56 23.9132 42.6827 23.8492 42.8C23.7852 42.9173 23.7052 43.024 23.6092 43.12C23.5132 43.216 23.4065 43.3013 23.2892 43.376C23.1719 43.44 23.0599 43.4933 22.9532 43.536C22.6439 43.6747 22.2865 43.7813 21.8812 43.856C21.4865 43.9307 21.0759 43.9573 20.6492 43.936C20.0732 43.9147 19.5185 43.8027 18.9852 43.6C18.4625 43.3867 18.0519 43.04 17.7532 42.56C17.4759 42.0907 17.3105 41.568 17.2572 40.992C17.2039 40.416 17.2305 39.872 17.3372 39.36C17.4545 38.7413 17.6519 38.24 17.9292 37.856C18.2172 37.4613 18.5585 37.1467 18.9532 36.912C19.4332 36.6347 19.9719 36.4907 20.5692 36.48C21.1665 36.4693 21.7372 36.5867 22.2812 36.832C22.6439 36.992 22.9692 37.2107 23.2572 37.488C23.5452 37.7547 23.7639 38.08 23.9132 38.464C23.9559 38.56 23.9879 38.6773 24.0092 38.816C24.0412 38.9547 24.0625 39.104 24.0732 39.264C24.0839 39.4133 24.0839 39.5627 24.0732 39.712C24.0625 39.8613 24.0359 39.9947 23.9932 40.112C23.9292 40.304 23.8492 40.4533 23.7532 40.56C23.6572 40.6667 23.5345 40.7467 23.3852 40.8C23.2359 40.8533 23.0545 40.8907 22.8412 40.912C22.6385 40.9227 22.3932 40.9333 22.1052 40.944C21.8492 40.9547 21.6092 40.96 21.3852 40.96C21.1612 40.96 20.9319 40.96 20.6972 40.96C20.4625 40.9493 20.2172 40.944 19.9612 40.944C19.7159 40.9333 19.4385 40.9227 19.1292 40.912C19.0972 41.1253 19.1239 41.312 19.2092 41.472C19.3052 41.6213 19.4332 41.7493 19.5932 41.856C19.7532 41.952 19.9345 42.0267 20.1372 42.08C20.3399 42.1333 20.5372 42.1653 20.7292 42.176C21.0919 42.1973 21.4385 42.1707 21.7692 42.096C22.0999 42.0107 22.4412 41.9147 22.7932 41.808ZM22.1052 38.704C21.9025 38.4693 21.6892 38.2987 21.4652 38.192C21.2945 38.1173 21.1132 38.0853 20.9212 38.096C20.7399 38.096 20.5639 38.1227 20.3932 38.176C20.0839 38.2507 19.8225 38.4107 19.6092 38.656C19.5879 38.6773 19.5505 38.7307 19.4972 38.816C19.4439 38.8907 19.3905 38.9707 19.3372 39.056C19.2945 39.1413 19.2625 39.2213 19.2412 39.296C19.2199 39.3707 19.2305 39.408 19.2732 39.408H22.4092C22.3985 39.2587 22.3719 39.136 22.3292 39.04C22.2865 38.9333 22.2119 38.8213 22.1052 38.704ZM30.3586 32.816C30.5612 32.7627 30.7372 32.7573 30.8866 32.8C31.0466 32.832 31.1799 32.9013 31.2866 33.008C31.4039 33.1147 31.4892 33.248 31.5426 33.408C31.6066 33.568 31.6386 33.744 31.6386 33.936C31.6492 34.4693 31.6492 34.8853 31.6386 35.184C31.6386 35.4827 31.6386 35.744 31.6386 35.968V40.88C31.6386 41.456 31.6386 41.936 31.6386 42.32C31.6386 42.704 31.6172 43.0187 31.5746 43.264C31.5426 43.4987 31.4786 43.6747 31.3826 43.792C31.2972 43.9093 31.1639 43.9893 30.9826 44.032C30.8012 44.0853 30.5612 44.112 30.2626 44.112C29.9746 44.112 29.6119 44.112 29.1746 44.112C28.0226 44.112 27.1106 43.84 26.4386 43.296C25.7772 42.752 25.4252 41.888 25.3826 40.704C25.3612 40.192 25.4252 39.7227 25.5746 39.296C25.7239 38.8693 25.9426 38.5067 26.2306 38.208C26.5292 37.8987 26.8919 37.664 27.3186 37.504C27.7559 37.3333 28.2519 37.2533 28.8066 37.264H29.6866V34.4C29.6866 34.2293 29.6866 34.064 29.6866 33.904C29.6866 33.7333 29.7026 33.5787 29.7346 33.44C29.7666 33.2907 29.8306 33.1627 29.9266 33.056C30.0226 32.9493 30.1666 32.8693 30.3586 32.816ZM27.5746 41.696C27.7986 42.0053 28.2039 42.176 28.7906 42.208C28.9079 42.2187 29.0199 42.224 29.1266 42.224C29.2332 42.2133 29.3292 42.1973 29.4146 42.176C29.5106 42.1653 29.6012 42.1493 29.6866 42.128V39.168C29.3132 39.104 28.9719 39.0667 28.6626 39.056C28.3639 39.0347 28.0652 39.1413 27.7666 39.376C27.6066 39.504 27.4839 39.6693 27.3986 39.872C27.3132 40.064 27.2652 40.272 27.2546 40.496C27.2439 40.7093 27.2652 40.9227 27.3186 41.136C27.3719 41.3493 27.4572 41.536 27.5746 41.696Z" fill="#E79B29"/>
</svg>
