<svg width="35" height="45" viewBox="0 0 35 45" fill="none" xmlns="http://www.w3.org/2000/svg">
<path d="M9 9L18 2L27 9V20C27 20.5304 26.7893 21.0391 26.4142 21.4142C26.0391 21.7893 25.5304 22 25 22H11C10.4696 22 9.96086 21.7893 9.58579 21.4142C9.21071 21.0391 9 20.5304 9 20V9Z" stroke="#D9D9D9" stroke-width="2" stroke-linecap="round" stroke-linejoin="round"/>
<path d="M15 22V12H21V22" stroke="#D9D9D9" stroke-width="2" stroke-linecap="round" stroke-linejoin="round"/>
<path d="M7.13 40.848C7.14067 41.0613 7.146 41.2853 7.146 41.52C7.146 41.744 7.14067 41.952 7.13 42.144C7.11933 42.432 7.10333 42.6987 7.082 42.944C7.06067 43.1787 7.018 43.3813 6.954 43.552C6.89 43.712 6.78867 43.8347 6.65 43.92C6.522 43.9947 6.34067 44.016 6.106 43.984C5.86067 43.952 5.68467 43.8347 5.578 43.632C5.47133 43.4293 5.39667 43.2 5.354 42.944C5.322 42.6773 5.31133 42.4107 5.322 42.144C5.33267 41.8773 5.33267 41.6693 5.322 41.52C5.31133 41.2853 5.30067 41.0187 5.29 40.72C5.29 40.4107 5.258 40.1227 5.194 39.856C5.14067 39.5787 5.04467 39.344 4.906 39.152C4.76733 38.96 4.55933 38.8587 4.282 38.848C3.93 38.8267 3.658 38.8533 3.466 38.928C3.28467 39.0027 3.15133 39.1147 3.066 39.264C2.98067 39.4027 2.92733 39.5733 2.906 39.776C2.89533 39.9787 2.874 40.1973 2.842 40.432L2.826 41.056V42.224C2.826 42.416 2.82067 42.6187 2.81 42.832C2.81 43.0347 2.778 43.2213 2.714 43.392C2.65 43.5627 2.54867 43.7067 2.41 43.824C2.282 43.9413 2.09 44 1.834 44C1.514 44 1.274 43.8987 1.114 43.696C0.964667 43.4827 0.89 43.2213 0.89 42.912V33.712C0.89 33.648 0.89 33.5893 0.89 33.536C0.900667 33.472 0.911333 33.408 0.922 33.344C0.943333 33.28 0.959333 33.2213 0.97 33.168C0.980667 33.104 0.996667 33.0453 1.018 32.992C1.05 32.8853 1.10333 32.8053 1.178 32.752C1.23133 32.6987 1.28467 32.656 1.338 32.624C1.39133 32.592 1.45 32.5707 1.514 32.56C1.56733 32.5493 1.626 32.544 1.69 32.544C1.754 32.5333 1.818 32.528 1.882 32.528C2.042 32.528 2.19667 32.576 2.346 32.672C2.41 32.7147 2.46867 32.7627 2.522 32.816C2.57533 32.8587 2.618 32.9227 2.65 33.008C2.73533 33.2107 2.778 33.4027 2.778 33.584C2.78867 33.6373 2.794 33.7173 2.794 33.824C2.80467 33.92 2.81 34.0213 2.81 34.128C2.81 34.2347 2.81 34.3413 2.81 34.448C2.82067 34.544 2.826 34.6187 2.826 34.672V34.752C2.83667 35.0933 2.842 35.44 2.842 35.792C2.842 36.144 2.842 36.5013 2.842 36.864V37.136C3.29 36.9867 3.75933 36.9173 4.25 36.928C4.74067 36.928 5.178 37.024 5.562 37.216C5.95667 37.4187 6.25533 37.648 6.458 37.904C6.67133 38.16 6.826 38.4427 6.922 38.752C7.018 39.0613 7.07133 39.392 7.082 39.744C7.10333 40.096 7.11933 40.464 7.13 40.848ZM10.4853 36.768C10.8373 36.5973 11.2053 36.4747 11.5893 36.4C11.9733 36.3253 12.3519 36.3093 12.7253 36.352C13.1093 36.3947 13.4773 36.496 13.8293 36.656C14.1919 36.816 14.5226 37.04 14.8213 37.328C15.0666 37.5733 15.2799 37.872 15.4613 38.224C15.6426 38.5653 15.7759 38.9013 15.8612 39.232C16.0426 39.8187 16.0693 40.4107 15.9413 41.008C15.8133 41.6053 15.5946 42.16 15.2853 42.672C15.1359 42.9067 14.9493 43.12 14.7253 43.312C14.5119 43.4933 14.2826 43.6427 14.0373 43.76C13.7173 43.9093 13.3706 44.0107 12.9973 44.064C12.6239 44.128 12.2613 44.144 11.9093 44.112C11.2693 44.08 10.7039 43.92 10.2133 43.632C9.73325 43.344 9.34392 42.976 9.04525 42.528C8.75725 42.08 8.56525 41.5733 8.46925 41.008C8.38392 40.432 8.42125 39.8453 8.58125 39.248C8.75192 38.608 8.99725 38.0907 9.31725 37.696C9.64792 37.2907 10.0373 36.9813 10.4853 36.768ZM10.9653 38.912C10.8053 39.0613 10.6826 39.248 10.5973 39.472C10.5119 39.696 10.4586 39.9307 10.4373 40.176C10.4159 40.4107 10.4319 40.6507 10.4853 40.896C10.5493 41.1307 10.6453 41.344 10.7733 41.536C10.8799 41.696 11.0719 41.8293 11.3493 41.936C11.6266 42.0427 11.9146 42.1067 12.2133 42.128C12.5546 42.1493 12.8533 42.0587 13.1093 41.856C13.3653 41.6427 13.5573 41.3813 13.6853 41.072C13.8239 40.7627 13.8879 40.4267 13.8773 40.064C13.8666 39.7013 13.7706 39.3707 13.5893 39.072C13.4613 38.8587 13.2799 38.704 13.0453 38.608C12.8213 38.5013 12.5813 38.448 12.3253 38.448C12.0799 38.4373 11.8346 38.4747 11.5893 38.56C11.3439 38.6347 11.1359 38.752 10.9653 38.912ZM25.9683 40.272C25.9896 40.6133 26.0003 40.9387 26.0003 41.248C26.0003 41.5467 25.9896 41.8667 25.9683 42.208C25.9683 42.336 25.9683 42.48 25.9683 42.64C25.9683 42.8 25.9576 42.9547 25.9363 43.104C25.9149 43.2533 25.8776 43.392 25.8243 43.52C25.7709 43.648 25.6909 43.7493 25.5843 43.824C25.4563 43.9093 25.3123 43.968 25.1523 44C24.9923 44.0213 24.8429 44.0107 24.7043 43.968C24.5656 43.9253 24.4429 43.8453 24.3363 43.728C24.2403 43.6107 24.1869 43.4453 24.1763 43.232C24.1443 42.7413 24.1283 42.2507 24.1283 41.76C24.1283 41.5147 24.1229 41.28 24.1123 41.056C24.1123 40.832 24.1176 40.5173 24.1283 40.112C24.1283 39.9093 24.1123 39.68 24.0803 39.424C24.0483 39.1573 23.9683 38.9707 23.8403 38.864C23.7443 38.7787 23.6376 38.7307 23.5203 38.72C23.4029 38.6987 23.2856 38.7093 23.1683 38.752C23.0616 38.7947 22.9656 38.8747 22.8803 38.992C22.7949 39.0987 22.7363 39.2373 22.7043 39.408C22.7043 39.5467 22.6989 39.6907 22.6883 39.84C22.6883 39.9787 22.6936 40.112 22.7043 40.24C22.7149 40.5813 22.7203 40.9067 22.7203 41.216C22.7203 41.5147 22.7149 41.8347 22.7043 42.176C22.6936 42.3147 22.6883 42.464 22.6883 42.624C22.6989 42.784 22.6989 42.944 22.6883 43.104C22.6776 43.2533 22.6456 43.392 22.5923 43.52C22.5496 43.648 22.4696 43.7493 22.3523 43.824C22.2243 43.9093 22.0856 43.9627 21.9363 43.984C21.7976 43.9947 21.6643 43.9733 21.5363 43.92C21.4189 43.856 21.3123 43.76 21.2163 43.632C21.1309 43.504 21.0829 43.3333 21.0723 43.12C21.0509 42.8747 21.0349 42.6507 21.0243 42.448C21.0243 42.2347 21.0243 42.0107 21.0243 41.776C21.0243 41.5307 21.0296 41.28 21.0403 41.024C21.0509 40.7573 21.0456 40.5013 21.0243 40.256C21.0243 40.1813 21.0189 40.096 21.0083 40C21.0083 39.8933 21.0029 39.7867 20.9923 39.68C20.9923 39.5733 20.9816 39.472 20.9603 39.376C20.9496 39.2693 20.9283 39.184 20.8963 39.12C20.8109 38.9707 20.6563 38.8747 20.4323 38.832C20.2189 38.7893 20.0376 38.8053 19.8883 38.88C19.7389 38.9547 19.6269 39.0507 19.5523 39.168C19.4776 39.2853 19.4243 39.4133 19.3923 39.552C19.3603 39.6907 19.3443 39.84 19.3443 40C19.3443 40.1493 19.3443 40.2933 19.3443 40.432C19.3443 41.1253 19.3443 41.728 19.3443 42.24C19.3549 42.7413 19.3016 43.1467 19.1843 43.456C19.1309 43.616 19.0189 43.7387 18.8483 43.824C18.6883 43.9093 18.5123 43.952 18.3203 43.952C18.1389 43.952 17.9683 43.9093 17.8083 43.824C17.6483 43.7387 17.5416 43.6053 17.4883 43.424C17.4563 43.3067 17.4243 43.1413 17.3923 42.928C17.3709 42.704 17.3549 42.4587 17.3443 42.192C17.3336 41.9253 17.3283 41.6587 17.3283 41.392C17.3283 41.1147 17.3283 40.864 17.3283 40.64V38.336C17.3176 38.0907 17.3123 37.824 17.3123 37.536C17.3123 37.248 17.3549 36.9867 17.4403 36.752C17.5149 36.5493 17.6323 36.4213 17.7923 36.368C17.9523 36.304 18.1176 36.2773 18.2883 36.288C18.4803 36.288 18.6296 36.3413 18.7363 36.448C18.8536 36.544 18.9389 36.6667 18.9923 36.816C19.0456 36.9547 19.0776 37.1147 19.0883 37.296C19.0989 37.4667 19.1096 37.632 19.1203 37.792C19.2376 37.5253 19.3763 37.3067 19.5363 37.136C19.7069 36.9547 19.9469 36.8373 20.2563 36.784C21.0456 36.6347 21.6749 36.8373 22.1443 37.392C22.3576 37.1787 22.6296 37.0027 22.9603 36.864C23.2163 36.768 23.4776 36.7253 23.7443 36.736C24.0109 36.736 24.2616 36.784 24.4963 36.88C24.7416 36.976 24.9603 37.1147 25.1523 37.296C25.3549 37.4773 25.5149 37.696 25.6323 37.952C25.7923 38.2933 25.8829 38.672 25.9043 39.088C25.9256 39.504 25.9469 39.8987 25.9683 40.272ZM32.8166 41.808C32.9446 41.776 33.0726 41.7547 33.2006 41.744C33.3393 41.7333 33.462 41.7493 33.5686 41.792C33.686 41.8347 33.782 41.9093 33.8566 42.016C33.9313 42.112 33.9686 42.2507 33.9686 42.432C33.9686 42.56 33.9366 42.6827 33.8726 42.8C33.8086 42.9173 33.7286 43.024 33.6326 43.12C33.5366 43.216 33.43 43.3013 33.3126 43.376C33.1953 43.44 33.0833 43.4933 32.9766 43.536C32.6673 43.6747 32.31 43.7813 31.9046 43.856C31.51 43.9307 31.0993 43.9573 30.6726 43.936C30.0966 43.9147 29.542 43.8027 29.0086 43.6C28.486 43.3867 28.0753 43.04 27.7766 42.56C27.4993 42.0907 27.334 41.568 27.2806 40.992C27.2273 40.416 27.254 39.872 27.3606 39.36C27.478 38.7413 27.6753 38.24 27.9526 37.856C28.2406 37.4613 28.582 37.1467 28.9766 36.912C29.4566 36.6347 29.9953 36.4907 30.5926 36.48C31.19 36.4693 31.7606 36.5867 32.3046 36.832C32.6673 36.992 32.9926 37.2107 33.2806 37.488C33.5686 37.7547 33.7873 38.08 33.9366 38.464C33.9793 38.56 34.0113 38.6773 34.0326 38.816C34.0646 38.9547 34.086 39.104 34.0966 39.264C34.1073 39.4133 34.1073 39.5627 34.0966 39.712C34.086 39.8613 34.0593 39.9947 34.0166 40.112C33.9526 40.304 33.8726 40.4533 33.7766 40.56C33.6806 40.6667 33.558 40.7467 33.4086 40.8C33.2593 40.8533 33.078 40.8907 32.8646 40.912C32.662 40.9227 32.4166 40.9333 32.1286 40.944C31.8726 40.9547 31.6326 40.96 31.4086 40.96C31.1846 40.96 30.9553 40.96 30.7206 40.96C30.486 40.9493 30.2406 40.944 29.9846 40.944C29.7393 40.9333 29.462 40.9227 29.1526 40.912C29.1206 41.1253 29.1473 41.312 29.2326 41.472C29.3286 41.6213 29.4566 41.7493 29.6166 41.856C29.7766 41.952 29.958 42.0267 30.1606 42.08C30.3633 42.1333 30.5606 42.1653 30.7526 42.176C31.1153 42.1973 31.462 42.1707 31.7926 42.096C32.1233 42.0107 32.4646 41.9147 32.8166 41.808ZM32.1286 38.704C31.926 38.4693 31.7126 38.2987 31.4886 38.192C31.318 38.1173 31.1366 38.0853 30.9446 38.096C30.7633 38.096 30.5873 38.1227 30.4166 38.176C30.1073 38.2507 29.846 38.4107 29.6326 38.656C29.6113 38.6773 29.574 38.7307 29.5206 38.816C29.4673 38.8907 29.414 38.9707 29.3606 39.056C29.318 39.1413 29.286 39.2213 29.2646 39.296C29.2433 39.3707 29.254 39.408 29.2966 39.408H32.4326C32.422 39.2587 32.3953 39.136 32.3526 39.04C32.31 38.9333 32.2353 38.8213 32.1286 38.704Z" fill="#D9D9D9"/>
</svg>
