<svg width="33" height="31" viewBox="0 0 33 31" fill="none" xmlns="http://www.w3.org/2000/svg">
<path d="M31.02 21.0542L20.4738 4.62418C20.0473 3.99748 19.4598 3.48173 18.7653 3.12447C18.0708 2.76722 17.2918 2.57996 16.5 2.57996C15.7082 2.57996 14.9292 2.76722 14.2347 3.12447C13.5403 3.48173 12.9527 3.99748 12.5263 4.62418L1.98002 21.0542C1.60746 21.6376 1.40498 22.3028 1.39291 22.983C1.38084 23.6632 1.55962 24.3344 1.91127 24.9292C2.31782 25.5986 2.9063 26.1546 3.61654 26.5404C4.32679 26.9262 5.13334 27.128 5.95377 27.125H27.0463C27.8613 27.1332 28.6642 26.9392 29.374 26.5628C30.0837 26.1863 30.6752 25.6407 31.0888 24.9808C31.4507 24.3799 31.6352 23.6991 31.6231 23.0087C31.6111 22.3184 31.4028 21.6436 31.02 21.0542ZM16.5 21.9583C16.2281 21.9583 15.9622 21.8826 15.7361 21.7407C15.51 21.5987 15.3338 21.397 15.2297 21.161C15.1256 20.925 15.0984 20.6652 15.1514 20.4147C15.2045 20.1641 15.3354 19.934 15.5277 19.7533C15.72 19.5727 15.965 19.4497 16.2318 19.3998C16.4985 19.35 16.775 19.3756 17.0262 19.4733C17.2775 19.5711 17.4922 19.7367 17.6433 19.9491C17.7944 20.1615 17.875 20.4112 17.875 20.6667C17.875 21.0092 17.7302 21.3378 17.4723 21.58C17.2144 21.8223 16.8647 21.9583 16.5 21.9583ZM17.875 16.7917C17.875 17.1342 17.7302 17.4628 17.4723 17.705C17.2144 17.9473 16.8647 18.0833 16.5 18.0833C16.1353 18.0833 15.7856 17.9473 15.5277 17.705C15.2699 17.4628 15.125 17.1342 15.125 16.7917V11.625C15.125 11.2824 15.2699 10.9539 15.5277 10.7117C15.7856 10.4694 16.1353 10.3333 16.5 10.3333C16.8647 10.3333 17.2144 10.4694 17.4723 10.7117C17.7302 10.9539 17.875 11.2824 17.875 11.625V16.7917Z" fill="black"/>
</svg>
