<svg width="20" height="15" viewBox="0 0 20 15" fill="none" xmlns="http://www.w3.org/2000/svg">
<path d="M17 5.00001H16.68L15.43 1.88001C15.2068 1.32527 14.8228 0.849898 14.3275 0.514916C13.8321 0.179935 13.248 0.000628704 12.65 1.22978e-05H6.65C5.95529 -0.00197605 5.28142 0.237203 4.74342 0.676725C4.20541 1.11625 3.83662 1.72886 3.7 2.41001L3.18 5.00001H3C2.20435 5.00001 1.44129 5.31608 0.87868 5.87869C0.316071 6.4413 0 7.20436 0 8.00001V11C0 11.2652 0.105357 11.5196 0.292893 11.7071C0.48043 11.8947 0.734784 12 1 12H2C2 12.7957 2.31607 13.5587 2.87868 14.1213C3.44129 14.6839 4.20435 15 5 15C5.79565 15 6.55871 14.6839 7.12132 14.1213C7.68393 13.5587 8 12.7957 8 12H12C12 12.7957 12.3161 13.5587 12.8787 14.1213C13.4413 14.6839 14.2044 15 15 15C15.7956 15 16.5587 14.6839 17.1213 14.1213C17.6839 13.5587 18 12.7957 18 12H19C19.2652 12 19.5196 11.8947 19.7071 11.7071C19.8946 11.5196 20 11.2652 20 11V8.00001C20 7.20436 19.6839 6.4413 19.1213 5.87869C18.5587 5.31608 17.7956 5.00001 17 5.00001V5.00001ZM11 2.00001H12.65C12.8486 2.00181 13.0421 2.06269 13.206 2.17488C13.3698 2.28708 13.4965 2.44552 13.57 2.63001L14.52 5.00001H11V2.00001ZM5.66 2.80001C5.70675 2.57074 5.83242 2.36512 6.01514 2.21894C6.19786 2.07277 6.42605 1.99529 6.66 2.00001H9V5.00001H5.22L5.66 2.80001ZM5 13C4.80222 13 4.60888 12.9414 4.44443 12.8315C4.27998 12.7216 4.15181 12.5654 4.07612 12.3827C4.00043 12.2 3.98063 11.9989 4.01921 11.8049C4.0578 11.6109 4.15304 11.4328 4.29289 11.2929C4.43275 11.1531 4.61093 11.0578 4.80491 11.0192C4.99889 10.9806 5.19996 11.0004 5.38268 11.0761C5.56541 11.1518 5.72159 11.28 5.83147 11.4444C5.94135 11.6089 6 11.8022 6 12C6 12.2652 5.89464 12.5196 5.70711 12.7071C5.51957 12.8947 5.26522 13 5 13ZM15 13C14.8022 13 14.6089 12.9414 14.4444 12.8315C14.28 12.7216 14.1518 12.5654 14.0761 12.3827C14.0004 12.2 13.9806 11.9989 14.0192 11.8049C14.0578 11.6109 14.153 11.4328 14.2929 11.2929C14.4327 11.1531 14.6109 11.0578 14.8049 11.0192C14.9989 10.9806 15.2 11.0004 15.3827 11.0761C15.5654 11.1518 15.7216 11.28 15.8315 11.4444C15.9414 11.6089 16 11.8022 16 12C16 12.2652 15.8946 12.5196 15.7071 12.7071C15.5196 12.8947 15.2652 13 15 13ZM18 10H17.22C16.9388 9.69066 16.5961 9.44348 16.2138 9.27434C15.8315 9.1052 15.418 9.01783 15 9.01783C14.582 9.01783 14.1685 9.1052 13.7862 9.27434C13.4039 9.44348 13.0612 9.69066 12.78 10H7.22C6.93882 9.69066 6.59609 9.44348 6.21378 9.27434C5.83148 9.1052 5.41805 9.01783 5 9.01783C4.58195 9.01783 4.16852 9.1052 3.78622 9.27434C3.40391 9.44348 3.06118 9.69066 2.78 10H2V8.00001C2 7.7348 2.10536 7.48044 2.29289 7.29291C2.48043 7.10537 2.73478 7.00001 3 7.00001H17C17.2652 7.00001 17.5196 7.10537 17.7071 7.29291C17.8946 7.48044 18 7.7348 18 8.00001V10Z" fill="white"/>
</svg>
