<svg width="20" height="14" viewBox="0 0 20 14" fill="none" xmlns="http://www.w3.org/2000/svg">
<path d="M19.844 12.4597L14.844 4.45971C14.7543 4.315 14.6292 4.19558 14.4804 4.11277C14.3317 4.02995 14.1642 3.98649 13.994 3.98649C13.8237 3.98649 13.6563 4.02995 13.5076 4.11277C13.3588 4.19558 13.2337 4.315 13.144 4.45971L12.144 6.08971L8.85398 0.489706C8.76544 0.340483 8.63959 0.216868 8.48881 0.131008C8.33803 0.0451486 8.1675 0 7.99399 0C7.82047 0 7.64994 0.0451486 7.49916 0.131008C7.34838 0.216868 7.22253 0.340483 7.13399 0.489706L0.133985 12.4897C0.0464678 12.6413 0.000267096 12.8132 1.15464e-06 12.9882C-0.000264786 13.1632 0.0454132 13.3353 0.13247 13.4871C0.219526 13.639 0.344912 13.7653 0.496094 13.8535C0.647276 13.9417 0.81896 13.9887 0.993985 13.9897H18.994C19.1727 13.9901 19.3482 13.9425 19.5023 13.8521C19.6563 13.7616 19.7834 13.6315 19.8701 13.4754C19.9569 13.3192 20.0003 13.1426 19.9957 12.964C19.9911 12.7853 19.9387 12.6112 19.844 12.4597ZM8.44398 11.9897H2.73398L7.99399 2.98971L10.924 7.98971L8.44398 11.9897ZM10.794 11.9897L12.994 8.55971L13.994 6.87971L17.194 11.9897H10.794Z" fill="white"/>
</svg>
