<svg width="24" height="24" viewBox="0 0 24 24" fill="none" xmlns="http://www.w3.org/2000/svg">
<path d="M7.5 4.00019C7.63161 4.00095 7.76207 3.97572 7.88391 3.92596C8.00574 3.87619 8.11656 3.80287 8.21 3.71019L9.21 2.71019C9.3983 2.52188 9.50409 2.26649 9.50409 2.00019C9.50409 1.73388 9.3983 1.47849 9.21 1.29019C9.0217 1.10188 8.7663 0.996094 8.5 0.996094C8.2337 0.996094 7.9783 1.10188 7.79 1.29019L6.79 2.29019C6.69627 2.38315 6.62188 2.49375 6.57111 2.61561C6.52034 2.73747 6.4942 2.86817 6.4942 3.00019C6.4942 3.1322 6.52034 3.2629 6.57111 3.38476C6.62188 3.50662 6.69627 3.61722 6.79 3.71019C6.88344 3.80287 6.99426 3.87619 7.11609 3.92596C7.23793 3.97572 7.36839 4.00095 7.5 4.00019ZM11.5 4.00019C11.6316 4.00095 11.7621 3.97572 11.8839 3.92596C12.0057 3.87619 12.1166 3.80287 12.21 3.71019L13.21 2.71019C13.3983 2.52188 13.5041 2.26649 13.5041 2.00019C13.5041 1.73388 13.3983 1.47849 13.21 1.29019C13.0217 1.10188 12.7663 0.996094 12.5 0.996094C12.2337 0.996094 11.9783 1.10188 11.79 1.29019L10.79 2.29019C10.6963 2.38315 10.6219 2.49375 10.5711 2.61561C10.5203 2.73747 10.4942 2.86817 10.4942 3.00019C10.4942 3.1322 10.5203 3.2629 10.5711 3.38476C10.6219 3.50662 10.6963 3.61722 10.79 3.71019C10.8834 3.80287 10.9943 3.87619 11.1161 3.92596C11.2379 3.97572 11.3684 4.00095 11.5 4.00019ZM15.5 4.00019C15.6316 4.00095 15.7621 3.97572 15.8839 3.92596C16.0057 3.87619 16.1166 3.80287 16.21 3.71019L17.21 2.71019C17.3032 2.61695 17.3772 2.50626 17.4277 2.38443C17.4781 2.26261 17.5041 2.13204 17.5041 2.00019C17.5041 1.86833 17.4781 1.73776 17.4277 1.61594C17.3772 1.49411 17.3032 1.38342 17.21 1.29019C17.1168 1.19695 17.0061 1.12299 16.8842 1.07253C16.7624 1.02207 16.6319 0.996094 16.5 0.996094C16.3681 0.996094 16.2376 1.02207 16.1158 1.07253C15.9939 1.12299 15.8832 1.19695 15.79 1.29019L14.79 2.29019C14.6963 2.38315 14.6219 2.49375 14.5711 2.61561C14.5203 2.73747 14.4942 2.86817 14.4942 3.00019C14.4942 3.1322 14.5203 3.2629 14.5711 3.38476C14.6219 3.50662 14.6963 3.61722 14.79 3.71019C14.8834 3.80287 14.9943 3.87619 15.1161 3.92596C15.2379 3.97572 15.3684 4.00095 15.5 4.00019ZM17.92 15.6202C17.8981 15.5565 17.8678 15.4959 17.83 15.4402L17.71 15.2902L17.56 15.1702C17.5043 15.1323 17.4437 15.1021 17.38 15.0802C17.3205 15.0497 17.2562 15.0295 17.19 15.0202C17.0293 14.988 16.8632 14.9958 16.7063 15.0429C16.5494 15.09 16.4064 15.1749 16.29 15.2902C16.247 15.3377 16.2069 15.3878 16.17 15.4402C16.1322 15.4959 16.1019 15.5565 16.08 15.6202C16.0512 15.6769 16.0309 15.7375 16.02 15.8002C16.0151 15.8668 16.0151 15.9336 16.02 16.0002C16.0211 16.2625 16.1253 16.5139 16.31 16.7002C16.4025 16.7969 16.5152 16.872 16.64 16.9202C16.754 16.9689 16.8761 16.9961 17 17.0002C17.2652 17.0002 17.5196 16.8948 17.7071 16.7073C17.8946 16.5198 18 16.2654 18 16.0002C18.0049 15.9336 18.0049 15.8668 18 15.8002C17.9828 15.7364 17.9558 15.6757 17.92 15.6202ZM19.76 11.1102L18.4 7.05019C18.1926 6.46342 17.8077 5.95569 17.2989 5.59735C16.7901 5.239 16.1824 5.04779 15.56 5.05019H8.44C7.81764 5.04779 7.20995 5.239 6.7011 5.59735C6.19225 5.95569 5.80745 6.46342 5.6 7.05019L4.24 11.1102C3.60033 11.2777 3.03392 11.6519 2.62883 12.1745C2.22374 12.6971 2.00268 13.3389 2 14.0002V18.0002C2.00174 18.6191 2.19488 19.2224 2.55294 19.7272C2.911 20.2321 3.41645 20.6139 4 20.8202V22.0002C4 22.2654 4.10536 22.5198 4.29289 22.7073C4.48043 22.8948 4.73478 23.0002 5 23.0002C5.26522 23.0002 5.51957 22.8948 5.70711 22.7073C5.89464 22.5198 6 22.2654 6 22.0002V21.0002H18V22.0002C18 22.2654 18.1054 22.5198 18.2929 22.7073C18.4804 22.8948 18.7348 23.0002 19 23.0002C19.2652 23.0002 19.5196 22.8948 19.7071 22.7073C19.8946 22.5198 20 22.2654 20 22.0002V20.8202C20.5835 20.6139 21.089 20.2321 21.4471 19.7272C21.8051 19.2224 21.9983 18.6191 22 18.0002V14.0002C21.9973 13.3389 21.7763 12.6971 21.3712 12.1745C20.9661 11.6519 20.3997 11.2777 19.76 11.1102ZM7.49 7.68019C7.55709 7.48156 7.6849 7.30905 7.85537 7.18703C8.02584 7.065 8.23036 6.99964 8.44 7.00019H15.56C15.7781 6.9888 15.9939 7.04911 16.1744 7.1719C16.355 7.29469 16.4904 7.4732 16.56 7.68019L17.61 11.0002H6.39L7.49 7.68019ZM20 18.0002C20 18.2654 19.8946 18.5198 19.7071 18.7073C19.5196 18.8948 19.2652 19.0002 19 19.0002H5C4.73478 19.0002 4.48043 18.8948 4.29289 18.7073C4.10536 18.5198 4 18.2654 4 18.0002V14.0002C4 13.735 4.10536 13.4806 4.29289 13.2931C4.48043 13.1055 4.73478 13.0002 5 13.0002H19C19.2652 13.0002 19.5196 13.1055 19.7071 13.2931C19.8946 13.4806 20 13.735 20 14.0002V18.0002ZM13 15.0002H11C10.7348 15.0002 10.4804 15.1055 10.2929 15.2931C10.1054 15.4806 10 15.735 10 16.0002C10 16.2654 10.1054 16.5198 10.2929 16.7073C10.4804 16.8948 10.7348 17.0002 11 17.0002H13C13.2652 17.0002 13.5196 16.8948 13.7071 16.7073C13.8946 16.5198 14 16.2654 14 16.0002C14 15.735 13.8946 15.4806 13.7071 15.2931C13.5196 15.1055 13.2652 15.0002 13 15.0002ZM7.92 15.6202C7.89811 15.5565 7.86785 15.4959 7.83 15.4402L7.71 15.2902C7.56938 15.1514 7.3908 15.0574 7.19681 15.0201C7.00282 14.9827 6.80211 15.0036 6.62 15.0802C6.49725 15.1278 6.3851 15.1991 6.29 15.2902C6.24699 15.3377 6.20692 15.3878 6.17 15.4402C6.13215 15.4959 6.10189 15.5565 6.08 15.6202C6.0442 15.6757 6.01722 15.7364 6 15.8002C5.99509 15.8668 5.99509 15.9336 6 16.0002C6.00083 16.198 6.06028 16.391 6.17085 16.555C6.28141 16.719 6.43812 16.8465 6.62115 16.9215C6.80418 16.9964 7.00532 17.0153 7.19913 16.976C7.39295 16.9366 7.57073 16.8406 7.71 16.7002C7.89474 16.5139 7.9989 16.2625 8 16.0002C8.00491 15.9336 8.00491 15.8668 8 15.8002C7.98278 15.7364 7.9558 15.6757 7.92 15.6202Z" fill="#2A2A2A"/>
</svg>
